<svg xmlns="http://www.w3.org/2000/svg" viewBox="0 0 51.3 95"><defs><style>.a{fill:#fff;fill-rule:evenodd;}</style></defs><title>body</title><path class="a" d="M38.8,3H62.1a3.7,3.7,0,0,1,2.4.8c4.4,3.2,7.3,7.8,8.8,13.7s2.3,16,2.4,30.3a4.2,4.2,0,0,1-4.1,4.1,4.1,4.1,0,0,1-4.1-4.1c-.2-9.9-.4-16.7-.9-20.4a32.1,32.1,0,0,0-1.8-7.7.7.7,0,0,0-1.4.2v72A6.1,6.1,0,0,1,57.3,98a6.1,6.1,0,0,1-6.1-6.1V46.4a1.3,1.3,0,0,0-1.3-1.3,1.3,1.3,0,0,0-1.4,1.3V91.9a6.1,6.1,0,0,1-12.2,0v-72a.6.6,0,0,0-.6-.5.5.5,0,0,0-.5.3,32.1,32.1,0,0,0-1.8,7.7c-.5,3.7-.7,10.5-.9,20.4a4.1,4.1,0,0,1-4.1,4.1,4.2,4.2,0,0,1-4.1-4.1c.1-14.3.9-24.3,2.4-30.3s4.8-11,9.6-14.1A4.7,4.7,0,0,1,38.8,3Z" transform="translate(-24.3 -3)"/></svg>