<?xml version="1.0" encoding="utf-8"?>
<!-- Generator: Adobe Illustrator 23.0.1, SVG Export Plug-In . SVG Version: 6.00 Build 0)  -->
<svg version="1.1" id="Layer_1" xmlns="http://www.w3.org/2000/svg" xmlns:xlink="http://www.w3.org/1999/xlink" x="0px" y="0px"
	 viewBox="0 0 100 100" style="enable-background:new 0 0 100 100;" xml:space="preserve">
<style type="text/css">
	.st0{fill:#FFFFFF;}
</style>
<g>
	<g transform="translate(50 50) scale(0.69 0.69) rotate(15) translate(-50 -50)">
		<path class="st0" d="M92-13L8-13C-3.6-13-13-3.6-13,8l0,84c0,11.6,9.4,21,21,21l84,0c11.6,0,21-9.4,21-21l0-84
			C113-3.6,103.6-13,92-13z M18.5,97.3c-8.7,0-15.8-7.1-15.8-15.8c0-8.7,7.1-15.8,15.8-15.8s15.8,7.1,15.8,15.8
			C34.2,90.2,27.2,97.3,18.5,97.3z M50,65.8c-8.7,0-15.8-7.1-15.8-15.8c0-8.7,7.1-15.8,15.8-15.8c8.7,0,15.8,7.1,15.8,15.8
			S58.7,65.8,50,65.8z M81.5,34.2c-8.7,0-15.8-7.1-15.8-15.8c0-8.7,7.1-15.8,15.8-15.8c8.7,0,15.8,7.1,15.8,15.8
			C97.3,27.2,90.2,34.2,81.5,34.2z"/>
	</g>
</g>
</svg>
