<svg fill="#6F0B0D" xmlns="http://www.w3.org/2000/svg" xmlns:xlink="http://www.w3.org/1999/xlink" version="1.1" x="0px" y="0px" viewBox="0 0 20 20" enable-background="new 0 0 20 20" xml:space="preserve"><g><path fill="#6F0B0D" d="M19,5h-2.8C16.7,4.5,17,3.8,17,3c0-1.7-1.3-3-3-3c-1,0-2.8,0.9-4,2.1C8.8,0.9,7,0,6,0C4.3,0,3,1.3,3,3   c0,0.8,0.3,1.5,0.8,2H1C0.4,5,0,5.4,0,6v2.8C0,8.9,0.1,9,0.2,9h8.4C8.8,9,9,8.8,9,8.6V5.4C9,5.2,9.2,5,9.4,5h1.2   C10.8,5,11,5.2,11,5.4v3.2C11,8.8,11.2,9,11.4,9h8.4C19.9,9,20,8.9,20,8.8V6C20,5.4,19.6,5,19,5z M6,4C5.4,4,5,3.6,5,3   c0-0.6,0.4-1,1-1c0.6,0,2.4,1.2,2.9,1.8C8.6,3.9,6,4,6,4z M14,4c0,0-2.6-0.1-2.9-0.2C11.7,3.1,13.4,2,14,2c0.6,0,1,0.4,1,1   C15,3.6,14.6,4,14,4z"></path><path fill="#6F0B0D" d="M8.6,11H1.2C1.1,11,1,11.1,1,11.2V19c0,0.6,0.4,1,1,1h6.6C8.8,20,9,19.8,9,19.6v-8.2C9,11.2,8.8,11,8.6,11z   "></path><path fill="#6F0B0D" d="M18.8,11h-7.4c-0.2,0-0.4,0.2-0.4,0.4v8.2c0,0.2,0.2,0.4,0.4,0.4H18c0.6,0,1-0.4,1-1v-7.8   C19,11.1,18.9,11,18.8,11z"></path></g></svg>