<svg xmlns="http://www.w3.org/2000/svg" viewBox="0 0 442 442"><defs><style>.a{fill:#fff;}</style></defs><title>material</title><path class="a" d="M476,334.24a55.27,55.27,0,1,1-110.53,0v-1.53l-42-19.68a88.82,88.82,0,0,1-68.46,32.29,87.35,87.35,0,0,1-44.9-12.38l-69.64,69.65a50.42,50.42,0,0,1,4,20.15,55.16,55.16,0,1,1-35.12-51.5l69.41-69.4a88.87,88.87,0,0,1-12.14-44.9,87.84,87.84,0,0,1,32-68l-19.67-42.42h-1.3a55.22,55.22,0,1,1,41.59-18.85L239,170.1a80,80,0,0,1,16.15-1.54,88.41,88.41,0,0,1,88.37,88.38A81.48,81.48,0,0,1,342,273.08l42.42,19.68a56.08,56.08,0,0,1,36.41-13.67A55.08,55.08,0,0,1,476,334.24Z" transform="translate(-34 -36)"/></svg>