<svg xmlns="http://www.w3.org/2000/svg" viewBox="0 0 134.47 98.87"><defs><style>.a{fill:#fff;}</style></defs><title>mount</title><path class="a" d="M137.17,43.13l-18-15.53A3.36,3.36,0,0,1,118,25.38l-.24-2.63a1,1,0,0,0-1.76-.54l-2.12,2.58c-.52.64-1.07,1.26-1.65,1.85s-1.19,1.16-1.82,1.7L96.17,42.2a20.45,20.45,0,0,1-20.11,5l-20.19-6a16.12,16.12,0,0,0-15,3.14l-.24-.15a9.27,9.27,0,0,0-.82-.44A12.05,12.05,0,0,0,38.1,43a13.65,13.65,0,0,0-3.78-.62,14.53,14.53,0,0,0-3.87.41,13.66,13.66,0,0,0-1.88.59l-.91.38-.23.11L27.2,44l-.18.09-.23.12-.24.13-.21.13-.43.25c-.28.17-.56.35-.83.54a18.8,18.8,0,0,0-1.57,1.22,17.89,17.89,0,0,0-4.67,6.42,19.27,19.27,0,0,0-.69,1.89c0,.16-.09.32-.14.48l-.11.41-.21.78c-.54,2.08-1.09,4.17-1.61,6.25l-.4,1.57-.09.36-.08.29c-.06.21-.13.42-.2.63a16.44,16.44,0,0,1-1,2.42,16.6,16.6,0,0,1-1.39,2.23,16.27,16.27,0,0,1-1.71,2A12.56,12.56,0,0,1,7.7,74.94l-.84.47c-4,2.38-2.13,8.29-.43,7.61,6.06-2,11.92-7.1,14.32-11.61a21.81,21.81,0,0,0,1.53-3.51c.1-.3.2-.61.29-.92l.13-.48.11-.42.39-1.57c.51-2.09,1-4.18,1.51-6.28l.19-.78.08-.37c0-.1.05-.2.08-.3a9.76,9.76,0,0,1,.37-1.16,11.43,11.43,0,0,1,2.68-4.08,10.48,10.48,0,0,1,.93-.82c.16-.13.32-.25.5-.37l.25-.18.13-.08L30,50l.12-.08.18-.1.26-.15c.18-.11.37-.21.55-.3.38-.18.76-.37,1.15-.52a18.07,18.07,0,0,1,2.46-.78,18.86,18.86,0,0,1,2.67-.39c.16,0,.32,0,.49,0a16.13,16.13,0,0,0-1.27,15.71l1.41,3.07a3.59,3.59,0,0,1-3.44,5.08l-5.46-.28a3.39,3.39,0,0,0-2.54,1,3.36,3.36,0,0,0-1,2.52l.56,20.72a1.68,1.68,0,0,1-.35,1.08,1.7,1.7,0,0,1-1,.6L20.64,98l-3.2,7.57,2.16.15L28.89,100a3.18,3.18,0,0,0,1.47-2.43l1.06-14.69a3.77,3.77,0,0,1,4.07-3.47l5.2.45a6.65,6.65,0,0,0,1.18,0A6.25,6.25,0,0,0,43,79.65L47,78.56a1.25,1.25,0,0,1,1.36.48,1.26,1.26,0,0,1,0,1.44l-3.58,5.15a3.19,3.19,0,0,0-.52,2.29,3.13,3.13,0,0,0,1.22,2l19.68,14.76a2.12,2.12,0,0,1,.74,1,2.09,2.09,0,0,1,0,1.26l-.45,1.51,8.44,3.2-.58-5L56,89.69a4.3,4.3,0,0,1-.33-5.77l6.85-8.47A4.22,4.22,0,0,1,67,74.05l19.69,5.66a2.67,2.67,0,0,1,1.71,3.64l-1.92,4.76A8.06,8.06,0,0,0,86,89.53,7.35,7.35,0,0,0,85.92,91L86,96.29a11,11,0,0,1-.28,2.59,11.14,11.14,0,0,1-.91,2.44l-4.88,9.36a1.5,1.5,0,0,0-.09,1.16,1.48,1.48,0,0,0,.78.86l2,.91a1.66,1.66,0,0,1,.37.75,1.55,1.55,0,0,1,0,.83l-.58,1.73,9,3.79-.29-2.33L86.27,112a3,3,0,0,1-.23-2.73L97.39,82.7A6.65,6.65,0,0,1,100,79.64l1.71-1.06a6,6,0,0,1,2.66-.87,5.9,5.9,0,0,1,2.75.46l9.65,4.72a.79.79,0,0,1,.48.65.8.8,0,0,1-.35.74l-12.74,8.57a1.91,1.91,0,0,1-1.15.32,1.83,1.83,0,0,1-1.12-.44l-2.4-2L94,97.14,96,98l7.25-.23a6.26,6.26,0,0,0,1.69-.3,6.34,6.34,0,0,0,1.54-.77l18.65-13a2.38,2.38,0,0,0,0-3.94L113,71.8a3.47,3.47,0,0,1-1.35-1.72,3.4,3.4,0,0,1,0-2.18l5.48-17.63A2,2,0,0,1,119,48.84h5.56a9.08,9.08,0,0,1,2.7.41,9.21,9.21,0,0,1,2.45,1.22l1.09.77a5.15,5.15,0,0,0,6.33-8.11Z" transform="translate(-4.49 -21.84)"/></svg>