<svg xmlns="http://www.w3.org/2000/svg" viewBox="0 0 10.65 18.96"><defs><style>.a{fill:#fff;}</style></defs><title>pose</title><circle class="a" cx="6.53" cy="1.86" r="1.86"/><path class="a" d="M9.55,13.6,10,11.9l0-.17h.39v6.73a1,1,0,0,0,2,0V6.8A4.11,4.11,0,0,1,13,9.08a10.12,10.12,0,0,1-.37,2.56.66.66,0,0,0,.47.81l.17,0a.67.67,0,0,0,.64-.49,11.62,11.62,0,0,0,.41-2.9,5.15,5.15,0,0,0-1-3.32,3,3,0,0,0-1.14-.9.59.59,0,0,0-.23,0,.39.39,0,0,0-.15,0H8.61a.32.32,0,0,0-.14,0,4.15,4.15,0,0,1-1.32-.37A4.67,4.67,0,0,1,4.93,2.27.66.66,0,0,0,4,2a.67.67,0,0,0-.28.9A6,6,0,0,0,6.69,5.7,5.52,5.52,0,0,0,8,6.08V11l-.1.42L7.2,14.18h0v.06s0,0,0,.05v.06a.07.07,0,0,0,0,.05v.05a.13.13,0,0,0,0,.06v.05s0,0,0,0a.43.43,0,0,0,0,.05s0,0,0,.05,0,0,0,0,0,0,0,.05,0,0,0,0a.08.08,0,0,0,0,0,.17.17,0,0,1,0,.05l0,0,0,.05,0,0,0,0,0,0,0,0,0,0,0,0,0,0,0,0,0,0,0,0,0,0,.06,0,0,0H8l2.21.46V13.75Z" transform="translate(-3.68 -0.52)"/><path class="a" d="M12.62,16.41a1.06,1.06,0,0,0,1.05-.85,1.07,1.07,0,0,0-.83-1.27l-.23,0v2.17Z" transform="translate(-3.68 -0.52)"/></svg>