<svg xmlns="http://www.w3.org/2000/svg" viewBox="0 0 450 450"><defs><style>.a{fill:#656565;}</style></defs><title>contact</title><path class="a" d="M445.81,346.89v-241c0-.58-.06-1.15-.11-1.72a57.71,57.71,0,0,0-2.17-13.88,56.92,56.92,0,0,0-6.28-14.17,65,65,0,0,0-5.77-7.68,35.08,35.08,0,0,0-2.83-3,47.35,47.35,0,0,0-13.83-9.73c-1.28-.57-2.55-1.09-3.82-1.58a56,56,0,0,0-11.28-3.28c-.24-.05-.48-.08-.72-.12-.57-.1-1.13-.19-1.7-.27a57.79,57.79,0,0,0-7.44-.58H65.16c-1.59,0-3.16,0-4.74.12a59,59,0,0,0-11.31,1.48h0l-.1,0-.76.19a53.83,53.83,0,0,0-13.87,5.66A51.41,51.41,0,0,0,22.15,67C15.36,74.52,9.81,83.93,8,94c-.22,1.25-.43,2.49-.61,3.73-.07.42-.12.84-.18,1.26l-.15,1.18c0,.45-.09.89-.13,1.34s-.1,1.14-.13,1.71c0,.22,0,.44,0,.67,0,.71-.06,1.42-.06,2.14,0,.21,0,.43,0,.65V360.05c0,4.59.28,9.35,1.79,13.72,3.39,9.91,9.72,18.72,19,23.9A42.83,42.83,0,0,0,48,403.13c3,0,6,0,9,0H404.49a42.9,42.9,0,0,0,11-1.51A37.2,37.2,0,0,0,427.46,396c5.09-3.81,8.94-7.39,12.43-12.94a48.75,48.75,0,0,0,3.81-8.44,21.51,21.51,0,0,0,1.05-3.85,64.19,64.19,0,0,0,1.06-9.35C445.86,356.57,445.81,351.75,445.81,346.89ZM230.06,256.63h0l-.31.24Zm0,0h0l.72-.56C230.58,256.25,230.33,256.43,230.09,256.61Zm2.51-2.08c-.87.57-1.77,1.09-2.68,1.58-.85.27-1.71.51-2.57.71-.85,0-1.7,0-2.56,0-.82-.2-1.64-.42-2.46-.68-1-.52-1.91-1.07-2.83-1.67-5.08-4.18-9.92-8.65-14.89-12.93q-19.81-17.13-39.68-34.27l-48.26-41.63L75.8,130.36c-6.2-5.37-12.48-10.69-18.63-16.11-1-.89-2-1.85-2.92-2.84-.41-.66-.81-1.32-1.17-2s-.45-1.54-.64-2.31V106c0-.52,0-1.05.06-1.57.22-.91.47-1.81.75-2.71.44-.81.9-1.61,1.4-2.38.56-.62,1.15-1.21,1.77-1.78.65-.41,1.33-.81,2-1.17s1.61-.47,2.43-.66c3.13-.15,6.32,0,9.43,0H389.57c.62,0,1.23,0,1.85,0,.86.2,1.72.43,2.57.69.66.36,1.31.74,1.94,1.14s1.14,1.1,1.68,1.68c.52.81,1,1.64,1.46,2.5.27.85.51,1.7.72,2.57,0,.51.06,1,.06,1.54a.41.41,0,0,0,0,.11c0,.3,0,.6,0,.89-.19.85-.42,1.68-.67,2.51s-.78,1.37-1.2,2a82.34,82.34,0,0,1-6.3,5.78c-3.81,3.3-7.67,6.61-11.47,9.91q-19.49,16.86-39,33.67L293,202.38,251.5,238.21ZM52.42,357.24c0-.63,0-1.25,0-1.87V170.49l11,9.52q22.91,19.74,45.83,39.54,22.56,19.48,45.18,39c9.86,8.54,19.73,17,29.59,25.56,1.51,1.28,3,2.62,4.49,3.85a58.42,58.42,0,0,0,16,10.1,60.31,60.31,0,0,0,18.71,4.45,53.56,53.56,0,0,0,16.83-1.61,50.74,50.74,0,0,0,15.23-6.47c8.3-5.27,15.73-12.71,23.12-19.06q19.07-16.46,38.13-32.94l47.36-40.91,35.92-31V331.38c0,8.64,0,17.28,0,25.93-1.5,0-3-.07-4.45-.07Z"/></svg>