<svg xmlns="http://www.w3.org/2000/svg" viewBox="0 0 450 450"><defs><style>.a{fill:#656565;}</style></defs><title>faq</title><path class="a" d="M365.63,445H84.37A79.46,79.46,0,0,1,5,365.63V84.37A79.45,79.45,0,0,1,84.37,5H365.63A79.45,79.45,0,0,1,445,84.37V365.63A79.46,79.46,0,0,1,365.63,445ZM84.37,45A39.41,39.41,0,0,0,45,84.37V365.63A39.41,39.41,0,0,0,84.37,405H365.63A39.41,39.41,0,0,0,405,365.63V84.37A39.41,39.41,0,0,0,365.63,45Z"/><path class="a" d="M123.46,287.48q0-30.8,6-49t21.67-34.65q16.5-18.25,22-29.92a54.79,54.79,0,0,0,5.5-23.54q0-36.73-23.76-36.74-10.56,0-17.6,10.12t-7.48,27.28H67.58Q68,108.4,91.45,84.87t63.47-23.54q40.92,0,63.58,22.77t22.66,63.68q0,33.89-27.94,66.44L195,234.9a67,67,0,0,0-12.76,22.33q-3.73,11.55-4.18,30.25Zm-5.72,67.31q0-15,9.57-24.41t24.31-9.46q15.18,0,24.64,9.57t9.46,24.3q0,14.52-9.24,24.2t-24.86,9.68q-15.41,0-24.64-9.68T117.74,354.79Z"/><rect class="a" x="264.67" y="61.33" width="101.33" height="26.27"/><rect class="a" x="264.67" y="111.51" width="113.78" height="26.27"/><rect class="a" x="264.67" y="161.69" width="94.67" height="26.27"/><rect class="a" x="264.67" y="211.87" width="32.89" height="26.27"/><rect class="a" x="264.67" y="262.05" width="113.78" height="26.27"/><rect class="a" x="264.67" y="312.23" width="69.78" height="26.27"/><rect class="a" x="264.67" y="362.41" width="96.89" height="26.27"/></svg>