<svg xmlns="http://www.w3.org/2000/svg" viewBox="0 0 450 450"><defs><style>.a{fill:#656565;}</style></defs><title>materials</title><path class="a" d="M446.52,302.3A55.27,55.27,0,0,1,336,303.79v-3l-42-19.68a88.78,88.78,0,0,1-68.46,32.29A87.23,87.23,0,0,1,180.63,301L111,370.65a50.38,50.38,0,0,1,4,20.15,55.13,55.13,0,1,1-35.12-51.5l69.41-69.4A88.88,88.88,0,0,1,137.14,225a87.86,87.86,0,0,1,32-68l-19.67-42.42h-1.3a55.22,55.22,0,1,1,41.59-18.85l19.76,42.43a81.09,81.09,0,0,1,16.15-1.54A88.41,88.41,0,0,1,314,225a81.65,81.65,0,0,1-1.52,16.14l42.42,19.68a56.12,56.12,0,0,1,36.41-13.67,55.08,55.08,0,0,1,55.17,55Z"/></svg>