<svg xmlns="http://www.w3.org/2000/svg" viewBox="0 0 450 450"><defs><style>.a{fill:#656565;}</style></defs><title>privacy</title><path class="a" d="M134,174.14h31.32V124.2a59.64,59.64,0,0,1,119.28,0v49.94H316a81.26,81.26,0,0,1,19.1,2.3l8,1.95V124.21a118,118,0,0,0-236.09,0v54.18l8-1.95A81.39,81.39,0,0,1,134,174.14Z"/><path class="a" d="M316,185.75H134a74,74,0,0,0-74,74v102.6a81.44,81.44,0,0,0,81.44,81.44H308.56A81.44,81.44,0,0,0,390,362.39V259.79A74,74,0,0,0,316,185.75Zm-62.8,137.8v42.72a28.17,28.17,0,1,1-56.34,0V323.55a48.7,48.7,0,1,1,56.34,0Z"/></svg>