<svg xmlns="http://www.w3.org/2000/svg" viewBox="0 0 450 450"><defs><style>.a{fill:#656565;}</style></defs><title>tos</title><path class="a" d="M225,10.24c-119,0-215,96-215,214.52a214.71,214.71,0,0,0,215,215c119,0,215-96.51,215-215S344,10.24,225,10.24ZM145.21,364.75V333.69H304.79v31.06Zm27.23-54.94-39.65-84.09s26.75-22.46,46.34-52.56c20.07-30.58,27.24-63.07,27.24-86,0-4.3,12.42,0,12.42,0V231c-7.17,1.91-12.42,8.12-12.42,14.81,0,8.6,8.6,15.29,18.63,15.29s18.63-7.16,18.63-15.29c0-6.69-5.25-12.9-12.42-14.81V87.16s12.42-4.3,12.42,0c0,23.41,7.65,55.9,27.24,86s46.34,52.56,46.34,52.56l-39.65,84.09Z"/></svg>