<svg fill="#1A1A1A" xmlns="http://www.w3.org/2000/svg" xmlns:xlink="http://www.w3.org/1999/xlink" xml:space="preserve" version="1.1" style="shape-rendering:geometricPrecision;text-rendering:geometricPrecision;image-rendering:optimizeQuality;" viewBox="0 0 357 234" x="0px" y="0px" fill-rule="evenodd" clip-rule="evenodd"><defs><style type="text/css">
   
    .fil0 {fill:#1A1A1A}
   
  </style></defs><g><path class="fil0" d="M338 0c10,0 19,9 19,20l0 194c0,11 -9,20 -19,20l-318 0c-11,0 -20,-9 -20,-20l0 -194c0,-11 9,-20 20,-20l318 0zm-305 22l146 91 146 -91 -292 0zm-11 20l0 143 102 -80 -102 -63zm310 169l-118 -93 -29 18c-4,2 -9,2 -12,0l-29 -18 -119 93 307 0zm3 -26l0 -143 -102 63 102 80z"></path></g></svg>