<svg xmlns="http://www.w3.org/2000/svg" viewBox="0 0 86.47 73.79"><defs><style>.a{fill:#fff;}</style></defs><title>clothing</title><path class="a" d="M92.36,38.4l-9.55,8.37a2.38,2.38,0,0,1-3.46-.36L74.07,39,72.8,84.62a2.34,2.34,0,0,1-2.37,2.28h-41A2.4,2.4,0,0,1,27,84.62L25.76,39l-5.28,7.27a2.37,2.37,0,0,1-3.46.37L7.56,38.4a2.3,2.3,0,0,1-.27-3.19L20.84,18.38a14,14,0,0,1,11-5.28h6.37A2,2,0,0,1,40,14.2c2.18,4.36,5.1,7.28,10.46,7.28s8.28-2.92,10.47-7.28a2,2,0,0,1,1.73-1.1h5.64a14.32,14.32,0,0,1,11.1,5.28L92.91,35.21A2.56,2.56,0,0,1,92.36,38.4Z" transform="translate(-6.76 -13.1)"/></svg>