<svg xmlns="http://www.w3.org/2000/svg" viewBox="0 0 62.56 82.27"><defs><style>.a{fill:#fff;}</style></defs><title>head</title><path class="a" d="M79.52,47.32c-.09-.17-.26-.26-.35-.43,1.38-6.21,3.71-24-9.74-32.17,0,0,2.93-2.33,2.67-5.78,0,0-16,1.81-23.8.17s-16,4.4-17.43,10.18l-.17.17c-1.46.09-13.63,1.47-10.35,23.55a33.55,33.55,0,0,0,.52,3.79c-.09.18-.26.26-.35.44-2.84,3.7-1.72,9.14-.69,12.85.69,2.33,1.9,6.72,4.66,9.4,2.07,7.85,8.28,16.9,18.11,20.35a21.25,21.25,0,0,0,7.34,1.3,22,22,0,0,0,7.41-1.3c9.83-3.53,16-12.59,18.11-20.35,2.76-2.68,4.06-7.07,4.66-9.4C81.24,56.46,82.28,51,79.52,47.32Zm-4.66,11.3c-1.64,5.78-3.1,7.33-4.31,7.5-1,6.82-6.47,15.53-15.09,18.63a16.51,16.51,0,0,1-11,0c-8.72-3-14-11.73-15-18.63-1.12-.08-2.68-1.72-4.31-7.5-2.07-7.42-.18-8.88,1.72-8.88h.35S28.8,27,47.35,34.82c9.66,4.14,16.82,4,21.47,2.84,5.87,4.06,4.14,10.78,3.8,11.9,0,.09,0,.09-.09.18h.35C75,49.82,76.93,51.29,74.86,58.62Z" transform="translate(-18.72 -8.86)"/></svg>