<svg xmlns="http://www.w3.org/2000/svg" viewBox="0 0 450 450"><defs><style>.a{fill:#fff;}</style></defs><title>hero</title><path class="a" d="M225.69,446.33c-14.72-.6-29.46-.87-44.15-1.88-19.45-1.33-38.8-3.75-57.79-8.33-9.77-2.35-19.47-5-28.29-10.05A32.18,32.18,0,0,1,89,421.35c-4.08-3.93-4.81-8.7-2-13.59,3.62-6.29,7.46-12.47,11.36-18.6,2.28-3.57,6-5.54,9.66-7.28,8.9-4.17,18.41-6.28,28-8.13,2.45-.48,4.9-.9,7.35-1.32,1.63-.28,2.3-.95,2.08-2.83-.79-6.81-1.38-13.65-2-20.48,0-.1,0-.23,0-.29-2.72-3.71-1.16-7.84-1.27-11.83s-.7-8.12-1.08-12.18q-1.39-14.86-2.77-29.72c-.86-9.32-1.66-18.63-2.58-27.94a18.81,18.81,0,0,0-1.29-4.51c-.65-1.78-1.48-3.42.23-5.2.54-.57.53-1.87.45-2.8-.65-7.43-1.37-14.86-2.06-22.28-.31-3.27-.61-6.54-1-9.8-.16-1.59-6-10.1-7.47-11.44a8,8,0,0,1-1.85-2.93c-.67-1.62-1.13-3.33-1.67-5a2.59,2.59,0,0,1-.26-1.15,65.81,65.81,0,0,1,2.31-9.4c.52-1.34,2.52-2.07,3.76-3.17.66-.58,1.67-1.43,1.6-2.07a34.33,34.33,0,0,0-1.35-6.88,6.17,6.17,0,0,1,.08-4.84,9.87,9.87,0,0,0,1-4.76c-.77-9.22-1.73-18.42-2.62-27.62-.62-6.34-1.26-12.67-1.8-19a2.25,2.25,0,0,0-2.13-2.39c-2.39-.34-3.25-1.75-3.35-4.12-.22-5.77-.88-11.52-.94-17.29a111.67,111.67,0,0,1,.86-14.27c.35-2.88.24-5.47-2-7.37-5.48-4.55-6.89-10.25-6.27-17.21.92-10.39.11-21,2.48-31.2A150.11,150.11,0,0,1,117.46,14c1.1-3.1,3.56-3.39,5.2-.58a136,136,0,0,1,8.53,16c4.62,11.06,6,23,8.92,34.58a8.21,8.21,0,0,1-1.19,7.3c-4,5.63-4.56,11.38-2.73,18.26,2.36,8.88,3.11,18.19,4.61,27.3.33,2-.26,3.34-2.3,3.81s-2.09,1.82-1.94,3.43c.66,7.33,1.29,14.66,1.95,22,.72,7.93,1.38,15.85,2.23,23.76a9.86,9.86,0,0,0,1.71,4.58,6,6,0,0,1,1.17,5c-.09.48-.43,1-.37,1.42A11,11,0,0,0,144,183c.35-.55.66-1.13,1.05-1.64,2.47-3.32,3.06-7.92,7.55-9.94,1.55-.7,2.65-2.93,3.45-4.69a31,31,0,0,0,2.15-7.06,5.11,5.11,0,0,1,2.62-4,3.22,3.22,0,0,0,1.58-2.28c0-3.35.93-6.41,1.86-9.58,1.65-5.66,2.42-11.59,4.2-17.2a34.86,34.86,0,0,1,8.52-14.4c3-3,6.46-4.38,10.25-5.61,4-1.3,7.94-3,12-4.2a69.09,69.09,0,0,1,8.77-1.59c3.34-.52,5-2,5.28-5.35.39-5.26.58-10.55-1.92-15.47-.23-.45-.36-1.05-.72-1.28-3.83-2.49-4.56-6.57-5.32-10.54a7.18,7.18,0,0,1,.46-4.36c1.09-2.15.62-4.13.59-6.31,0-2.54,1-5.09,1.67-7.64.35-1.42.76-2.84,1.13-4.26a2.83,2.83,0,0,1,0-.29c1.28-3.68,3.22-7.08,4.48-10.79.72-2.11,6.33-3.43,8.49-2.39a2.46,2.46,0,0,0,3.57-.85c1.38-1.86,3.12-2.39,5.48-2a17.25,17.25,0,0,0,5.9-.24c5.25-1,7.44.51,7.41,5.84,0,2.67,1,3.85,3.41,4.14a6.13,6.13,0,0,1,.87.21c4.52,1.25,4.86,2.32,1.7,5.91a3.82,3.82,0,0,0-.61,4.66A7.67,7.67,0,0,0,251.3,52c1.93,1.79,1.66,3.49.81,5.85-.68,1.89-.33,4.39.23,6.44,1.28,4.69-.36,12.18-4.28,14.89-2.62,1.8-3.54,4.43-4.16,6.89-.9,3.6-.78,7.47-1,11.23a2.2,2.2,0,0,0,2.29,2.56,9.15,9.15,0,0,1,5.74,2.25c2.93,2.29,6.71,3.53,10.21,5s7.34,2.55,10.84,4.19c7,3.29,10.3,9.66,12.59,16.56,1.24,3.75,1.87,7.71,2.77,11.58.42,1.84.78,3.64,2.44,5a3.8,3.8,0,0,1,.87,2.66c.05,5.28,1.62,10.17,3.7,14.93,1.2,2.73,2.4,5.47,3.82,8.09.73,1.32,2,2.32,2.93,3.55.6.8,1.43,1.74,1.43,2.62,0,3,0,5.81,3.38,7.23.36.15.36,1.18.51,1.81.24,1,.19,2.23.73,3.05,1.74,2.63,2.24,4,.13,6-3.07,2.91-2.18,6-1.95,9.48.46,7.34,4.18,13.14,7.7,19.15a51.12,51.12,0,0,1,3.44,6.91c2.19,5.49-.67,11.33-7.72,12.68a24.46,24.46,0,0,1-7,.42,5.57,5.57,0,0,1-3.43-2.31c-.87-1.25-1.28-1.86-2.63-.64-1.19,1.07-2.33.77-3.3-.5s-2-2.24-2.79-3.47a7.44,7.44,0,0,1-1.48-3.16c-.37-4.26-.66-8.53-.64-12.8a10.31,10.31,0,0,1,1.52-5c2.53-4.05,1.36-7.84-.43-11.59-.33-.7-1.55-1.11-2.45-1.36-3.18-.92-4.45-2.54-4.37-5.87,0-.2.12-.49,0-.57-3.46-3.1-2.32-8-4.51-11.54a13.37,13.37,0,0,0-2.71-2.59c-.65-.58-1.84-1.05-1.92-1.69-.56-4.17-3.92-6.59-5.9-9.86-1.07-1.77-2.2-3.52-3.34-5.25a5.71,5.71,0,0,0-1-.95c-.22.32-.56.62-.63,1-.45,2.09-2.26,4.1-.26,6.39.33.37-.08,1.68-.5,2.32-.9,1.38-1.28,2.66-.32,4.14a1.72,1.72,0,0,1,.4,1.1c-1.07,4.58,3.42,9,.47,13.59,1.33,3,.34,6.47,2.51,9.32,1.07,1.4,2.83,3.36.08,5.24-.39.27,0,1.86.22,2.77,1.68,6.33,3.83,12.57,5.08,19a281.23,281.23,0,0,1,4.6,40.86,124.44,124.44,0,0,0,1.83,13.25c.36,2.28,1,4.49,3.11,5.88.17.11.39.28.4.43.17,3.06,2.4,5.21,3.42,7.83,3.73,9.54,3.85,19.63,3.78,29.72,0,3.77.4,7.54.48,11.31a12.68,12.68,0,0,1-.61,4.05,7.62,7.62,0,0,0,.44,5.73,27.66,27.66,0,0,1,1.36,5.93c1,5.28.75,10.93,4.9,15.24a6,6,0,0,0,3.77,2c12.51,1.72,25,3.69,37.05,7.63,2.17.71,4.36,1.39,6.47,2.26,6.32,2.6,11.62,6.3,14.87,12.68,2.43,4.78,5.56,9.19,8.29,13.83,3.27,5.54,2.25,11-2.75,15.16-4.75,3.92-10.27,6.41-16,8.47-12.79,4.6-26,7.41-39.41,9.49A551.16,551.16,0,0,1,225.69,446.33Zm43.8-78.77v.6c2,.08,2.67-.62,2.15-2.42-.87-3-1.14-6.51-2.88-8.93-2-2.84-1.15-5.77-1.35-8.47s-.52-5.16-1.86-7.29a104.36,104.36,0,0,1-10.66-23.92c-.56-1.73-.41-3.68-.68-5.51a7.38,7.38,0,0,0-.78-3,4.74,4.74,0,0,1-.87-4.45,5.19,5.19,0,0,0-1.3-5.53c-1.66-1.47-2.07-3.24-2.54-5.17a25.18,25.18,0,0,0-1.44-3.88c-2.27-5.4-5.14-10.62-6.74-16.21C237.29,262,234.8,250.47,231.8,239c-.47-1.82-1.89-3.42-3-5-.5-.72-4.93-.08-7.06,1.75s-1.79,3.85-2.18,5.92c-.74,3.9-1.72,7.76-2.76,11.59q-2.24,8.19-4.71,16.31c-1.36,4.45-3,8.81-4.36,13.27s-4.44,8-4.62,12.81a3.24,3.24,0,0,1-1.13,2c-2.2,1.88-2.31,4.2-1.87,6.8a10.75,10.75,0,0,1-.26,3.12c-.17,1.31-.44,2.61-.62,3.91a23.77,23.77,0,0,1-.28,2.95c-2.55,9.76-6,19.17-11.56,27.68a9.89,9.89,0,0,0-1.38,4.44c-.2,2.3.22,4.66,0,7-.13,1.26-1.16,2.4-1.57,3.66-.62,1.87-.94,3.84-1.61,5.69-1.27,3.55-.34,5,3.4,4.9,9.45-.35,18.9-1.11,28.35-1.08C232.87,366.76,251.18,367.25,269.49,367.56Zm-111.77-19,.3.06c.25,3.47.5,6.95.77,10.42.18,2.28.35,4.56.62,6.83.15,1.24.73,1.57,1.73.55,3.61-3.7,3.83-8.49,4.34-13.2.19-1.73.09-3.64.83-5.12a8.5,8.5,0,0,0,.35-7.15,8.9,8.9,0,0,1-.36-3.18c0-1.58.35-3.16.43-4.74q.63-12.51,1.19-25c.09-2-.24-4.17.24-6.1,1.05-4.22,4.11-7.72,4.54-12.2,0-.35.44-.65.61-1,.81-1.76,2-3.47,2.31-5.32a133.32,133.32,0,0,0,1.7-16.88,212.08,212.08,0,0,1,4.14-36.71c1.31-6.92,3.42-13.68,5.13-20.52.18-.73.33-2.09.09-2.19-1.77-.73-1-1.8-.62-2.91.61-1.66,1.07-3.38,1.76-5a12.35,12.35,0,0,0,.52-8.65c-.7-2.48-.11-5.34,0-8a2.21,2.21,0,0,1,.78-1.24c2-1.87,1.81-4,1-6.3-.27-.75-.45-2,0-2.45,2.08-2.19,1.2-4.21-.07-6.24a17.83,17.83,0,0,0-1.82-2.08,15.86,15.86,0,0,0-2.13,2.38c-.38.63-.21,1.56-.46,2.3a18.06,18.06,0,0,1-1.49,3.47c-.85,1.42-1.94,2.71-2.89,4.08-1.41,2-2.79,4.09-4.16,6.15-.37.57-1.08,1.29-1,1.74,1.12,4-3,5.14-4.12,7.86-.39.9-1.64,1.51-1.81,2.39a4.76,4.76,0,0,1-4.7,3.83c-2.32.13-3.34,1.29-4.46,2.82s-2.18,2.85-3.25,4.29c-1.65,2.25-6.32,12.13-8.9,12.42-2,.22-2.48.92-2.27,2.85.77,7.11,1.14,14.28,2.14,21.36.72,5.16.18,10.57,2.63,15.46a3.2,3.2,0,0,1,0,2.34,14.93,14.93,0,0,0-.52,7.92c.31,2.26.42,4.55.63,6.82q1.29,14.56,2.6,29.12c.92,10.1,1.81,20.2,2.86,30.28.21,2,1.11,3.95,1.58,5.95a9.14,9.14,0,0,1,.26,3.07C158.52,344.92,158.07,346.74,157.72,348.57Z"/></svg>