<?xml version="1.0" encoding="utf-8"?>
<!-- Generator: Adobe Illustrator 22.0.1, SVG Export Plug-In . SVG Version: 6.00 Build 0)  -->
<svg version="1.1" id="Layer_4" xmlns="http://www.w3.org/2000/svg" xmlns:xlink="http://www.w3.org/1999/xlink" x="0px" y="0px"
	 viewBox="0 0 311.7 437" style="enable-background:new 0 0 311.7 437;" xml:space="preserve">
<style type="text/css">
	.st0{fill:url(#SVGID_1_);}
	.st1{fill:#FFFFFF;}
</style>
<g>
	<g>
		<linearGradient id="SVGID_1_" gradientUnits="userSpaceOnUse" x1="4.552416e-05" y1="218.4927" x2="311.7169" y2="218.4927">
			<stop  offset="0" style="stop-color:#6F0509"/>
			<stop  offset="0.4776" style="stop-color:#6F0509"/>
			<stop  offset="1" style="stop-color:#6F0509"/>
		</linearGradient>
		<path class="st0" d="M0,0v384.2L155.9,437l155.9-52.8V0H0z"/>
	</g>
	<path class="st1" d="M124.4,215.2c5.1-3,9.3-5.5,13.3-8.1c7.7-4.8,15.1-9.3,28.4-16c15.1-7.6,32.9-11.5,52.7-11.5
		c4.8,0,9.3,0.2,13.4,0.6c-16.3,2.6-40.1,8.6-63.5,22.1C155.8,209.7,136.9,213.4,124.4,215.2z"/>
	<path class="st1" d="M205,205c14.9,0,26.8,6,40.9,16c-8.7-2.6-19.8-4.8-32.4-4.8c-14,0-27.5,2.7-40.1,8.2
		c-6.8,2.9-15.2,4.4-24.8,4.4c-13,0-26.3-2.7-36.7-5.4c0.8,0,1.7,0,2.5,0c0,0,0,0,0,0c15.7,0,37.6-1.4,52.2-8.1
		C181.8,208.2,194.1,205,205,205z"/>
	<path class="st1" d="M208.8,163c-13.8,2-26.9,5.3-41.3,13.5c-9.4,5.3-16.8,9.7-29.6,18.9c7.8-12.5,22.2-22.5,33.6-30
		c13.5-8.8,25.5-11.9,37.3-13.4c16.6-2.1,36.6-15,44.7-20.8c-4.6,9.2-8,15-14,19.7C231.9,156.8,224.5,160.7,208.8,163z"/>
	<path class="st1" d="M182.5,53.8c0.7,2.3,1.8,5,3.1,7.6c3.5,6.6,13.3,12.5,14.4,13.2l2.8,1.6l22.4-23.5l-2.4-2.2l7.1-7.2l1.6,1.5
		l2.6-1.8c1.1-0.7,4-2.3,6.1-2.3c0.2,0,0.5,0,0.7,0.1l5.3,4.8c0.6,1.3-0.2,4.7-1.4,7l-1.5,2.8l1.3,1.2l-7.1,7.2l-2.5-2.2l-22.4,23.5
		l2,2.7c0.8,1,7.6,10.1,14.6,12.9c2.8,1.1,5.7,1.9,8.2,2.4L229,120l-5.8,0.5c-0.5-2.6-1.7-6.1-4.2-10.8
		C213.4,98.9,205.8,97.1,205,97l-2.4-0.5l-95.7,120.6l-34.1,9.1l6.9-37L193,88.9l-0.5-2.3c-0.2-0.8-2.1-8.4-13.6-13
		c-4.9-1.9-8.6-2.7-11.2-3l-0.1-5.9L182.5,53.8z"/>
	<path class="st1" d="M124.6,93c2.8-15.6,6.9-22.9,13-30.3c4.8-5.8,10.8-9,20.1-13.3c-6,7.8-19.6,27.5-22.2,44
		c-1.9,11.7-5.4,23.7-14.6,36.8c-7.8,11.2-13.4,18.7-26.1,29.4c9.5-15.1,9.3-16.5,14.9-25.7C118.4,119.7,122.1,106.7,124.6,93z"/>
	<path class="st1" d="M96.8,39.6c-4.8,11.5-8.1,25.7-5,40.1c3.2,15,0.9,25.9-6.7,41.2c0.7-10.3,0.9-24.7-2-38.2
		C80,68.3,87.9,52.3,96.8,39.6z"/>
	<path class="st1" d="M105.2,77.2c2,18.4,1.6,46.5-13.9,68.8c-11.3,16.3-13.5,26.1-14.3,35.9c-3.1-11.5-5.5-28.4,2.7-39.8
		C95.9,119.6,102.5,94.3,105.2,77.2z"/>
	<path class="st1" d="M58.8,137.4c11.3-22.9,8.2-47,2.8-64.4c15,21.2,25.8,40.9,7,72.8c-8.7,14.8-3.1,39.3,1.2,53
		C59.7,188.3,44.6,166.2,58.8,137.4z"/>
	<path class="st1" d="M198,291.8c-28.1,0-41,5.5-41.4,20.3c-0.3,14.9,37.1,19.1,37.1,19.1v10.3H73.3v-11.6c0,0,13.6-2.6,19.2-4.6
		s16.2-9.6,16.2-17.2s0-1.9,0-13.1c0-11.2-13.7-19.2-31.8-27.6c-5.4-2.5-20.9-7.1-20.9-7.1l-6-19.6h122.1l-0.3,5.3h13.2v3h77.7
		C262.9,248.9,244.7,291.8,198,291.8z"/>
	<path class="st1" d="M238,201.5c-3.3,0-6.6-0.4-10-1.3c-5.7-1.4-12.2-2.2-19.2-2.2c-5.4,0-10.6,0.4-15.2,1
		c14-6.8,24.5-9.8,37.3-6.6c6.1,1.5,12.1,2.3,17.7,2.3c5.8,0,10.7-0.8,15-1.9C257,197.5,248.3,201.5,238,201.5z"/>
</g>
</svg>
