<?xml version="1.0" encoding="utf-8"?>
<!-- Generator: Adobe Illustrator 22.0.1, SVG Export Plug-In . SVG Version: 6.00 Build 0)  -->
<svg version="1.1" id="Layer_4" xmlns="http://www.w3.org/2000/svg" xmlns:xlink="http://www.w3.org/1999/xlink" x="0px" y="0px"
	 viewBox="0 0 1056.8 264.3" style="enable-background:new 0 0 1056.8 264.3;" xml:space="preserve">
<style type="text/css">
	.white{fill:white;}
</style>
<g>
	<g>
		<path class="white" d="M107.1,1.5v261.3c0,0.8-0.7,1.5-1.5,1.5h-35c-0.8,0-1.5-0.7-1.5-1.5V134.2h-32v128.6c0,0.8-0.7,1.5-1.5,1.5H1.5
			c-0.8,0-1.5-0.7-1.5-1.5V1.5C0,0.7,0.7,0,1.5,0h34.2c0.8,0,1.5,0.7,1.5,1.5v101.9h32V1.5c0-0.8,0.7-1.5,1.5-1.5h35
			C106.5,0,107.1,0.7,107.1,1.5z"/>
		<path class="white" d="M294.2,73.9c0,12.6-8.5,17-28.6,26.1V36.1h20.6c4.4,0,8,3.6,8,8V73.9z M345.2,262.9c-2.8-13.1-24-111.8-31.9-148.5
			c11-9.3,18-23.3,18-38.9V40c0-22.1-17.9-40-40-40h-61.5c-0.8,0-1.5,0.7-1.5,1.5v261.3c0,0.8,0.7,1.5,1.5,1.5h34.2
			c0.8,0,1.5-0.7,1.5-1.5V136.1l13.9-7.1l28.6,134.1c0.1,0.7,0.8,1.2,1.5,1.2l34.5,0C344.8,264.3,345.4,263.6,345.2,262.9z"/>
		<path class="white" d="M164,169.1c0,9.5,0,59,0,59h43.2c0.8,0,1.5,0.7,1.5,1.5v33.2c0,0.8-0.7,1.5-1.5,1.5h-79c-0.8,0-1.5-0.7-1.5-1.5V1.5
			c0-0.8,0.7-1.5,1.5-1.5h79c0.8,0,1.5,0.7,1.5,1.5v33.1c0,0.8-0.7,1.5-1.5,1.5H164v67.3h44.6c0.6,0,1.1,0.6,1,1.3l-5.7,21.4
			c-0.1,0.4-0.6,0.7-1,0.7C175.9,126.8,164,142.9,164,169.1z"/>
		<g>
			<path class="white" d="M412.9,0h-20.7c-22.1,0-40,17.9-40,40v184.3c0,22.1,17.9,40,40,40h20.7c22.1,0,40-17.9,40-40V40
				C452.9,17.9,435,0,412.9,0z M415.6,220.1c0,4.4-3.6,8-8,8h-10.3c-4.4,0-8-3.6-8-8v-176c0-4.4,3.6-8,8-8h10.3c4.4,0,8,3.6,8,8
				V220.1z"/>
		</g>
	</g>
	<g>
		<path class="white" d="M790.8,73.9c0,12.6-8.5,17-28.6,26.1V36.1h20.6c4.4,0,8,3.6,8,8V73.9z M841.8,262.9c-2.8-13.1-24-111.8-31.9-148.5
			c11-9.3,18-23.3,18-38.9V40c0-22.1-17.9-40-40-40h-61.5c-0.8,0-1.5,0.7-1.5,1.5v261.3c0,0.8,0.7,1.5,1.5,1.5h34.2
			c0.8,0,1.5-0.7,1.5-1.5V136.1l13.9-7.1l28.6,134.1c0.1,0.7,0.8,1.2,1.5,1.2l34.5,0C841.4,264.3,842,263.6,841.8,262.9z"/>
		<path class="white" d="M1011.3,169.1c0,9.5,0,59,0,59h43.2c0.8,0,1.5,0.7,1.5,1.5v33.2c0,0.8-0.7,1.5-1.5,1.5h-79c-0.8,0-1.5-0.7-1.5-1.5V1.5
			c0-0.8,0.7-1.5,1.5-1.5h79c0.8,0,1.5,0.7,1.5,1.5v33.1c0,0.8-0.7,1.5-1.5,1.5h-43.2v67.3h44.6c0.6,0,1.1,0.6,1,1.3L1051,126
			c-0.1,0.4-0.6,0.7-1,0.7C1023.2,126.8,1011.3,142.9,1011.3,169.1z"/>
		<g>
			<path class="white" d="M665.1,0h-20.7c-22.1,0-40,17.9-40,40v184.3c0,22.1,17.9,40,40,40h20.7c22.1,0,40-17.9,40-40V40
				C705.1,17.9,687.2,0,665.1,0z M667.9,220.1c0,4.4-3.6,8-8,8h-10.3c-4.4,0-8-3.6-8-8v-176c0-4.4,3.6-8,8-8h10.3c4.4,0,8,3.6,8,8
				V220.1z"/>
		</g>
		<path class="white" d="M582.3,126.6c0.4,0,0.8-0.3,1-0.7l5.7-21.4c0.2-0.6-0.3-1.3-1-1.3h-44.6V36.1h43.2c0.8,0,1.5-0.7,1.5-1.5V1.5
			c0-0.8-0.7-1.5-1.5-1.5h-79c-0.8,0-1.5,0.7-1.5,1.4v261.3c0,0.9,0.7,1.6,1.5,1.6h35.7c0-45.6,0-90.8,0-95.4
			C543.4,142.7,555.4,126.6,582.3,126.6z"/>
		<path class="white" d="M917.2,91.4V44.1c0-4.4-3.6-8-8-8l-16.5,0c-4.4,0-8,3.6-8,8v176.1c0,4.4,3.6,8,8,8h16.5c4.4,0,8-4,8-8
			c0-0.6,0-50.2,0-50.9c-0.1-7.9-1.1-18.7-15-22.9c-0.2-0.1-0.4-0.2-0.4-0.4c-0.6-2.6-4.5-19.1-4.5-19.1c-0.1-0.4,0.2-0.8,0.6-0.8
			l56.5-0.1v98.3c0,22.1-17.9,40-40,40l-26.9,0c-22.1,0-40-17.9-40-40V40c0-22.1,17.9-40,40-40l26.9,0c22.1,0,40,17.9,40,40v51.4
			H917.2z"/>
	</g>
</g>
</svg>
