<svg xmlns="http://www.w3.org/2000/svg" viewBox="0 0 1174.58 945"><defs><style>.a{fill:#1a1a1a;}</style></defs><title>mail</title><path class="a" d="M1079.08,189.32V792.54c0,26.87.12,53.74,0,80.61a49.87,49.87,0,0,1-.5,7.49c.74-5.4,1.48-10.92,2.21-16.32a54.77,54.77,0,0,1-3.56,12.64c2.09-4.91,4.18-9.82,6.14-14.61a56.12,56.12,0,0,1-6.63,11c3.19-4.17,6.38-8.22,9.57-12.4a60.7,60.7,0,0,1-8,8c4.17-3.19,8.22-6.38,12.39-9.57a55.76,55.76,0,0,1-11,6.63c4.91-2.09,9.82-4.18,14.6-6.14a55.27,55.27,0,0,1-12.64,3.56l16.32-2.21c-10.06,1.23-20.74.49-30.8.49H138.92a57.76,57.76,0,0,1-8-.49l16.32,2.21a55.27,55.27,0,0,1-12.64-3.56c4.91,2.09,9.82,4.17,14.6,6.14a56,56,0,0,1-11-6.63c4.17,3.19,8.22,6.38,12.39,9.57a60.7,60.7,0,0,1-8-8c3.19,4.18,6.38,8.23,9.57,12.4a56.12,56.12,0,0,1-6.63-11c2.09,4.91,4.17,9.82,6.14,14.61a54.77,54.77,0,0,1-3.56-12.64c.73,5.4,1.47,10.92,2.21,16.32-1-7.86-.49-16.08-.49-23.93V269c0-26.38-.13-52.89,0-79.27a113.68,113.68,0,0,1,.85-12.88c-.73,5.4-1.47,10.92-2.2,16.32a95.51,95.51,0,0,1,6.25-22.46c-2.08,4.91-4.17,9.82-6.13,14.6a91.91,91.91,0,0,1,11.78-20.12c-3.19,4.17-6.38,8.22-9.57,12.39A93.73,93.73,0,0,1,166.4,162c-4.17,3.19-8.22,6.38-12.39,9.57a90.82,90.82,0,0,1,19.51-11.29c-4.91,2.09-9.82,4.17-14.6,6.14a91.13,91.13,0,0,1,21.35-5.65L164,162.94c11-1.35,22.57-.86,33.74-.86h854a100.31,100.31,0,0,1,13.5.86l-16.32-2.21a98.11,98.11,0,0,1,21.35,5.65c-4.91-2.09-9.82-4.18-14.6-6.14a91.06,91.06,0,0,1,19.51,11.29c-4.17-3.19-8.22-6.38-12.39-9.57a93.73,93.73,0,0,1,15.58,15.58c-3.19-4.17-6.38-8.22-9.57-12.39a100.91,100.91,0,0,1,11.78,20.12c-2.09-4.91-4.17-9.81-6.14-14.6a101.66,101.66,0,0,1,6.26,22.46c-.74-5.4-1.47-10.92-2.21-16.32.25,4.17.62,8.34.62,12.51A63.84,63.84,0,0,0,1097,232.76c10.68,10.67,28.1,18.65,43.44,17.91,15.83-.73,32.27-5.89,43.43-17.91,10.93-11.9,18.17-26.87,17.92-43.44-.25-24-6.14-44.91-15.83-66.63a89.12,89.12,0,0,0-10.06-17.54c-6.63-9.21-13.62-18.78-22.21-26.26-28.47-25.16-63.19-39-101.35-39.27H179.53c-15.34,0-31.29,1.6-46,6.14a148.85,148.85,0,0,0-93.63,85A153.53,153.53,0,0,0,27.5,191.41V869.23c0,12.27.74,25,4.79,36.68,9.08,26.51,26,50.07,50.92,63.93a114.56,114.56,0,0,0,54.85,14.61c8.09.12,16.07,0,24.17,0h929.24A114.91,114.91,0,0,0,1121,980.4c11.17-3.19,22.58-8,31.9-15,13.62-10.19,23.93-19.76,33.26-34.61,4.29-7,7.36-15,10.18-22.57a57.71,57.71,0,0,0,2.82-10.31c1.35-8.22,2.7-16.69,2.82-25,.13-13,0-25.89,0-38.9V189.32a63.91,63.91,0,0,0-17.91-43.44c-10.68-10.67-28.1-18.65-43.44-17.91-15.83.74-32.27,5.89-43.43,17.91S1079.08,172.63,1079.08,189.32Z" transform="translate(-27.5 -39.5)"/><path class="a" d="M1079.08,189.32a78.68,78.68,0,0,1-.74,10.8c.74-5.4,1.47-10.92,2.21-16.32a94.67,94.67,0,0,1-6.26,23.07c2.09-4.91,4.17-9.82,6.14-14.6a98.82,98.82,0,0,1-10.8,18.28c3.19-4.17,6.38-8.22,9.57-12.39-6.51,8.22-14.24,14.72-22.09,21.47-10.18,8.83-20.49,17.67-30.67,26.5q-52.1,45.11-104.3,90.07l-129,111.29L682.25,543.32c-17.79,15.34-35.46,30.68-53.25,46-1.6,1.35-3.19,2.7-4.91,3.92,4.17-3.19,8.22-6.38,12.39-9.57a98.05,98.05,0,0,1-18.77,10.92c4.91-2.08,9.81-4.17,14.6-6.13a98.29,98.29,0,0,1-22.09,6.13l16.32-2.2a90.77,90.77,0,0,1-24.42,0l16.32,2.2a92.29,92.29,0,0,1-22.08-6.13c4.91,2.08,9.81,4.17,14.6,6.13a95.57,95.57,0,0,1-18.78-10.92c4.18,3.19,8.23,6.38,12.4,9.57-16.57-12.88-31.9-27.36-47.73-41q-53-45.82-106.14-91.66L321.62,349.21Q267,302.08,212.29,254.85c-16.56-14.36-33.37-28.59-49.82-43.07a105.79,105.79,0,0,1-13-13.62c3.19,4.17,6.38,8.22,9.57,12.39a94.23,94.23,0,0,1-10.8-18.28c2.09,4.9,4.17,9.81,6.14,14.6a94.23,94.23,0,0,1-6.26-23.07c.73,5.4,1.47,10.92,2.21,16.32a92.73,92.73,0,0,1,.24-23.31c-.73,5.39-1.47,10.92-2.21,16.32a95.53,95.53,0,0,1,6.26-22.46c-2.08,4.91-4.17,9.82-6.13,14.6a91.51,91.51,0,0,1,11.78-20.12c-3.19,4.17-6.38,8.22-9.57,12.39A93.73,93.73,0,0,1,166.28,162c-4.17,3.19-8.22,6.38-12.39,9.57a90.82,90.82,0,0,1,19.51-11.29c-4.91,2.09-9.82,4.17-14.61,6.14a91.39,91.39,0,0,1,21.35-5.65c-5.39.74-10.92,1.47-16.32,2.21,11.05-1.35,22.58-.86,33.75-.86h854a100.31,100.31,0,0,1,13.5.86l-16.32-2.21a98.11,98.11,0,0,1,21.35,5.65c-4.91-2.09-9.82-4.18-14.6-6.14A91.31,91.31,0,0,1,1075,171.53c-4.18-3.19-8.23-6.38-12.4-9.57a93.79,93.79,0,0,1,15.59,15.58c-3.19-4.17-6.38-8.22-9.57-12.39a101.39,101.39,0,0,1,11.78,20.12c-2.09-4.91-4.18-9.81-6.14-14.6a102.21,102.21,0,0,1,6.26,22.46c-.74-5.4-1.47-10.93-2.21-16.32.37,4.17.74,8.34.74,12.51A63.84,63.84,0,0,0,1097,232.76c10.68,10.67,28.1,18.65,43.44,17.91,15.83-.73,32.27-5.89,43.43-17.91,10.93-11.9,18.17-26.87,17.92-43.44a154.83,154.83,0,0,0-5.89-41.72c-3.93-13.13-9.45-26.38-16.81-37.91-14.6-22.7-35.09-43.44-60-54.61-21.72-9.69-42.7-15.33-66.75-15.58H183.83a194.73,194.73,0,0,0-43,4.29c-13.62,3-27.24,8.72-39.39,15.71a136.74,136.74,0,0,0-32.64,26c-18.16,20-33,45.16-37.79,72-2.58,14.24-4.42,28.35-2.95,42.7C30.44,221.84,35,239,44.8,258.53a92.51,92.51,0,0,0,8.84,14c6.38,8.58,12.76,17.3,20.73,24.41.74.62,1.48,1.35,2.21,2,5.52,4.78,11.17,9.69,16.81,14.48q42.89,37.17,85.9,74.23,61.29,52.83,122.58,105.77,60.36,52.1,120.86,104.3c26.38,22.82,52.76,45.52,79.14,68.35,4.05,3.43,8,7,12,10.31,13.74,11.65,26.38,20.12,42.82,27,16.69,7,31.66,10.18,50.07,11.9,14.84,1.35,30.67-.86,45-4.29a136.24,136.24,0,0,0,40.74-17.3c22.21-14.11,42.08-34,61.84-51q51-44,102-88.1L983,445.16l111.17-96.08c19.14-16.56,38.28-33,57.3-49.57,31.78-27.61,49.7-68.47,50.06-110.43.13-15.59-7-32.4-17.91-43.44-10.68-10.68-28.1-18.65-43.44-17.92C1106.93,129.44,1079.44,154.84,1079.08,189.32Z" transform="translate(-27.5 -39.5)"/></svg>