<svg width="100" height="100" version="1.1" viewBox="0 0 100 100" xmlns="http://www.w3.org/2000/svg"><g fill="#656565"><g transform="translate(50 50) scale(.69) translate(-50 -50)" fill="#656565"><svg enable-background="new 0 0 24 24" fill="#656565" version="1.1" viewBox="0 0 24 24" xml:space="preserve"><g fill="#656565"><g fill="#656565"><path d="m23.228 20.142-13.077-12.72c-0.347-0.338-0.508-0.832-0.431-1.321 0.289-1.823-0.207-3.435-1.432-4.659-0.956-0.956-2.184-1.456-3.394-1.441-1.096 0.024-2.14 0.412-3.02 1.123-0.127 0.103-0.196 0.26-0.185 0.423 0.012 0.163 0.102 0.31 0.242 0.394l3.056 1.833c-0.091 0.919-0.634 1.726-1.466 2.156l-2.735-1.641c-0.153-0.091-0.361-0.085-0.517 0-0.151 0.083-0.25 0.237-0.26 0.41-0.083 1.394 0.398 2.718 1.352 3.73 0.942 0.999 2.268 1.571 3.639 1.571 0.223 0 0.548-0.06 1.023-0.187 0.521-0.141 1.083 0.013 1.461 0.402l12.663 13.017c0.496 0.496 1.154 0.768 1.853 0.768 1.103 0 2-0.897 2-2.001 0-0.699-0.272-1.357-0.772-1.857z"/><path d="M20.207,6H21.5c0.189,0,0.362-0.107,0.447-0.276l2-4c0.097-0.192,0.059-0.425-0.094-0.577l-1-1    c-0.152-0.153-0.384-0.19-0.577-0.094l-4,2C18.107,2.138,18,2.311,18,2.5v1.293l-5.002,5.004l2.236,2.175L20.207,6z"/><path d="M8.086,12.586c-0.124,0-0.243,0.046-0.335,0.129l-6.898,6.224C0.311,19.48,0,20.23,0,21c0,0.766,0.311,1.516,0.846,2.051    l0.093,0.097C1.48,23.689,2.23,24,3,24c0.777,0,1.508-0.303,2.071-0.866c0,0,6.173-6.663,6.279-6.777    c0.096-0.094,0.15-0.222,0.15-0.356c0-0.068,0.011-0.135,0.02-0.202l-3.152-3.24C8.276,12.576,8.182,12.586,8.086,12.586z"/></g></g></svg></g></g></svg>
