<svg xmlns="http://www.w3.org/2000/svg" viewBox="0 0 60.2 60.1"><defs><style>.a{fill:#fff;}</style></defs><title>races</title><path class="a" d="M24.7,44.9C39.4,46.7,46.8,39.7,45,24.6l-.8-4.8c-.7-3.7-1-10.6,2.4-14a2.2,2.2,0,0,0,0-3.2,2.4,2.4,0,0,0-3.3,0C38.8,7,38.9,14.6,39.4,19l.8,4.8c2.1,12.7-2.7,16.8-11.5,16.8a44.1,44.1,0,0,1-4.9-.5L19,39.3c-4.3-.5-11.9-.6-16.4,3.9a2.2,2.2,0,0,0,0,3.2,2.4,2.4,0,0,0,3.3,0c3.1-3.1,9.5-3.1,14-2.3Z" transform="translate(-1.9 -1.9)"/><path class="a" d="M56.4,23.8a12.4,12.4,0,0,0,5-3.1,2.3,2.3,0,0,0-3.2-3.2A8.6,8.6,0,0,1,56,19l-5.5-5.5L46.9,9.8a16,16,0,0,0-.7,5.9l1.1,1,3.4,3.5a26,26,0,0,1-4-.1l.7,4.2a.7.7,0,0,0,.1.5,26.9,26.9,0,0,0,8.3-.8Z" transform="translate(-1.9 -1.9)"/><path class="a" d="M28.3,24.6l9.2,9.2a14,14,0,0,0,.8-5.8l-4.7-4.7h4.1L37,19.3a4.3,4.3,0,0,0-.1-.5c-12.6-.7-18.7,5.7-18.1,18h.7l4,.7c0-.7-.1-1.5-.1-2.3a9.1,9.1,0,0,1,.1-1.7L28,38.1h.7a14.6,14.6,0,0,0,5.1-.7l-9.1-9.1A8.6,8.6,0,0,1,28.3,24.6Z" transform="translate(-1.9 -1.9)"/><path class="a" d="M23.8,56.3l.2-.5a28,28,0,0,0,.9-8.4h-.6l-4.1-.7a26.7,26.7,0,0,1,0,4l-4.5-4.5a15.2,15.2,0,0,0-5.8.7L19,55.9a8.6,8.6,0,0,1-1.5,2.2,2.2,2.2,0,0,0,0,3.2,2.4,2.4,0,0,0,3.3,0A12.2,12.2,0,0,0,23.8,56.3Z" transform="translate(-1.9 -1.9)"/></svg>