<svg xmlns="http://www.w3.org/2000/svg" viewBox="0 0 450 450"><defs><style>.a{fill:#656565;}</style></defs><title>shipping</title><path class="a" d="M225,445a19.73,19.73,0,0,1-7-1.31,14.45,14.45,0,0,1-2.19-.91L15.94,340.28A20,20,0,0,1,5,322.38V123.28l-2-1,2-1A20.62,20.62,0,0,1,6,116.45l.08-.22c.15-.46.32-.9.5-1.33a19.92,19.92,0,0,1,2.53-4.45A13.28,13.28,0,0,1,10.25,109a20.18,20.18,0,0,1,4.34-3.62l.31-.18.56-.31c.18-.11.37-.21.56-.31l.29-.14L216.19,7a20.25,20.25,0,0,1,17.64,0l200,97.45,2,1,.42.39a20.23,20.23,0,0,1,3.55,3.14l.09.1a15.64,15.64,0,0,1,1,1.26,19.92,19.92,0,0,1,2.55,4.48c.17.4.38.94.59,1.61a20,20,0,0,1,.9,4.79l2,1-2,1v199.1a20,20,0,0,1-11,17.91L234.21,442.77a15.47,15.47,0,0,1-2.18.92A19.8,19.8,0,0,1,225,445Zm-8.25-1.82Zm0,0h0Zm16.62,0h0l0,0Zm11.8-205.84V391.94l159.62-81.86V155.44ZM45.25,310.08l159.63,81.86V237.3L45.25,155.44ZM168.19,173.25,225,202.38,379.87,123,320.61,94.09ZM70.13,123l54.12,27.76,151.3-78.58L225,47.51ZM6.5,115l-.06.17Zm434-5.08.19.24ZM9.4,110l0,0,0,0Zm428-3.09.08.06Z"/></svg>