<svg xmlns="http://www.w3.org/2000/svg" viewBox="0 0 450 450"><defs><style>.a{fill:#656565;}</style></defs><title>pencil</title><path class="a" d="M221,125.91,20.82,326.09l-7.08,7.08-10,71.71L.16,430.83a16.85,16.85,0,0,0,19,19l11.34-1.57h0l20.83-2.9,5.62-.78,59.87-8.32,7.08-7.08,26.52-26.52L324.09,229Zm-109.84,299-64.88,9L16.1,403.72l9-64.88,17.21-17.21,10.4-2.16a21.88,21.88,0,0,1,25.8,26.16l25.84,25.84a21.88,21.88,0,0,1,26.16,25.8l-2.16,10.4Z"/><path class="a" d="M327.55,25.5h91.53a27.13,27.13,0,0,1,27.13,27.13v75.23a0,0,0,0,1,0,0H300.42a0,0,0,0,1,0,0V52.63A27.13,27.13,0,0,1,327.55,25.5Z" transform="translate(163.57 -241.52) rotate(45)"/><rect class="a" x="219.87" y="147.64" width="145.79" height="19.18" transform="translate(196.93 -160.97) rotate(45)"/><rect class="a" x="244.22" y="123.29" width="145.79" height="19.18" transform="translate(186.84 -185.32) rotate(45)"/></svg>