<svg xmlns="http://www.w3.org/2000/svg" viewBox="0 0 450 450"><defs><style>.a{fill:#656565;}</style></defs><title>save</title><path class="a" d="M399.55,30.25H83.93c-6.71,0-13.41,0-20.12,6.75L43.66,57.11C37,63.86,37,70.56,37,77.26V406.13a14.42,14.42,0,0,0,13.49,13.62h349.1A14.46,14.46,0,0,0,413,406.3V43.7A14.5,14.5,0,0,0,399.55,30.25ZM325.68,184.69H124.23c-13.41,0-20.15-6.7-20.15-20.11V41.88H345.84v122.7Q345.84,184.7,325.68,184.69Z"/><rect class="a" x="130.85" y="53.1" width="54.81" height="109.62" rx="7.84"/></svg>